<svg width="257" height="50" viewBox="0 0 257 50" fill="none" xmlns="http://www.w3.org/2000/svg">
<path d="M53.457 24.8652C53.457 26.1133 53.2256 27.2178 52.7627 28.1787C52.2998 29.1396 51.6406 29.8809 50.7852 30.4023C49.9355 30.918 48.9658 31.1758 47.876 31.1758C46.7861 31.1758 45.8193 30.9268 44.9756 30.4287C44.1318 29.9248 43.4727 29.207 42.998 28.2754C42.5293 27.3437 42.2832 26.2744 42.2598 25.0674L42.2598 24.3467C42.2598 23.0928 42.4883 21.9883 42.9453 21.0332C43.4082 20.0723 44.0674 19.3311 44.9229 18.8096C45.7842 18.2881 46.7627 18.0273 47.8584 18.0273C48.9424 18.0273 49.9092 18.2852 50.7588 18.8008C51.6084 19.3164 52.2676 20.0518 52.7363 21.0068C53.2109 21.9561 53.4512 23.0459 53.457 24.2764L53.457 24.8652ZM50.3193 24.3291C50.3193 23.0576 50.1055 22.0937 49.6777 21.4375C49.2559 20.7754 48.6494 20.4443 47.8584 20.4443C46.3115 20.4443 45.4941 21.6045 45.4063 23.9248L45.3975 24.8652C45.3975 26.1191 45.6055 27.083 46.0215 27.7568C46.4375 28.4307 47.0557 28.7676 47.876 28.7676C48.6553 28.7676 49.2559 28.4365 49.6777 27.7744C50.0996 27.1123 50.3135 26.1602 50.3193 24.918L50.3193 24.3291ZM63.7402 26.3154C63.7402 27.792 63.4063 28.9727 62.7383 29.8574C62.0762 30.7363 61.1797 31.1758 60.0488 31.1758C59.1758 31.1758 58.458 30.8564 57.8955 30.2178L57.8955 34.6562L54.9336 34.6562L54.9336 21.4902L57.7021 21.4902L57.79 22.3691C58.3584 21.666 59.1055 21.3145 60.0313 21.3145C61.2031 21.3145 62.1143 21.748 62.7646 22.6152C63.415 23.4766 63.7402 24.6631 63.7402 26.1748L63.7402 26.3154ZM60.7783 26.1309C60.7783 24.4434 60.2861 23.5996 59.3018 23.5996C58.5986 23.5996 58.1299 23.8516 57.8955 24.3555L57.8955 28.0996C58.1533 28.627 58.6279 28.8906 59.3193 28.8906C60.2627 28.8906 60.749 28.0762 60.7783 26.4473L60.7783 26.1309ZM69.6553 31.1758C68.1963 31.1758 67.0156 30.7422 66.1133 29.875C65.2109 29.002 64.7598 27.8682 64.7598 26.4736L64.7598 26.2275C64.7598 25.2549 64.9385 24.3965 65.2959 23.6523C65.6592 22.9082 66.1865 22.334 66.8779 21.9297C67.5693 21.5195 68.3896 21.3145 69.3389 21.3145C70.6748 21.3145 71.7295 21.7305 72.5029 22.5625C73.2764 23.3887 73.6631 24.543 73.6631 26.0254L73.6631 27.1768L67.7744 27.1768C67.8799 27.71 68.1113 28.1289 68.4688 28.4336C68.8262 28.7383 69.2891 28.8906 69.8574 28.8906C70.7949 28.8906 71.5273 28.5625 72.0547 27.9062L73.4082 29.5059C73.0391 30.0156 72.5146 30.4228 71.835 30.7275C71.1611 31.0264 70.4346 31.1758 69.6553 31.1758ZM69.3213 23.5996C68.4541 23.5996 67.9385 24.1738 67.7744 25.3223L70.7627 25.3223L70.7627 25.0937C70.7744 24.6191 70.6543 24.2529 70.4023 23.9951C70.1504 23.7314 69.79 23.5996 69.3213 23.5996ZM77.583 21.4902L77.6797 22.6064C78.3359 21.7451 79.2412 21.3145 80.3955 21.3145C81.3857 21.3145 82.124 21.6103 82.6104 22.2021C83.1025 22.7939 83.3574 23.6846 83.375 24.874L83.375 31L80.4043 31L80.4043 24.9971C80.4043 24.5166 80.3076 24.165 80.1143 23.9424C79.9209 23.7139 79.5693 23.5996 79.0596 23.5996C78.4795 23.5996 78.0488 23.8281 77.7676 24.2852L77.7676 31L74.8057 31L74.8057 21.4902L77.583 21.4902ZM96.2422 27.5986C96.2422 27.1475 96.0811 26.7959 95.7588 26.5439C95.4424 26.292 94.8828 26.0312 94.0801 25.7617C93.2773 25.4922 92.6211 25.2314 92.1113 24.9795C90.4531 24.165 89.624 23.0459 89.624 21.6221C89.624 20.9131 89.8291 20.2891 90.2393 19.75C90.6553 19.2051 91.2412 18.7832 91.9971 18.4844C92.7529 18.1797 93.6025 18.0273 94.5459 18.0273C95.4658 18.0273 96.2891 18.1914 97.0156 18.5195C97.748 18.8477 98.3164 19.3164 98.7207 19.9258C99.125 20.5293 99.3271 21.2207 99.3271 22L96.251 22C96.251 21.4785 96.0898 21.0742 95.7676 20.7871C95.4512 20.5 95.0205 20.3564 94.4756 20.3564C93.9248 20.3564 93.4883 20.4795 93.166 20.7256C92.8496 20.9658 92.6914 21.2734 92.6914 21.6484C92.6914 21.9766 92.8672 22.2754 93.2188 22.5449C93.5703 22.8086 94.1885 23.084 95.0732 23.3711C95.958 23.6523 96.6846 23.957 97.2529 24.2852C98.6357 25.082 99.3271 26.1807 99.3271 27.5811C99.3271 28.7002 98.9053 29.5791 98.0615 30.2178C97.2178 30.8564 96.0605 31.1758 94.5898 31.1758C93.5527 31.1758 92.6123 30.9912 91.7686 30.6221C90.9307 30.2471 90.2979 29.7373 89.8701 29.0928C89.4482 28.4424 89.2373 27.6953 89.2373 26.8516L92.3311 26.8516C92.3311 27.5371 92.5068 28.0439 92.8584 28.3721C93.2158 28.6943 93.793 28.8555 94.5898 28.8555C95.0996 28.8555 95.501 28.7471 95.7939 28.5303C96.0928 28.3076 96.2422 27.9971 96.2422 27.5986ZM104.794 28.8906C105.21 28.8906 105.532 28.7793 105.761 28.5566C105.989 28.3281 106.101 28.0117 106.095 27.6074L108.872 27.6074C108.872 28.6504 108.497 29.5059 107.747 30.1738C107.003 30.8418 106.042 31.1758 104.864 31.1758C103.481 31.1758 102.392 30.7422 101.595 29.875C100.798 29.0078 100.399 27.8066 100.399 26.2715L100.399 26.1484C100.399 25.1875 100.575 24.3408 100.927 23.6084C101.284 22.8701 101.797 22.3047 102.465 21.9121C103.133 21.5137 103.924 21.3144 104.838 21.3144C106.074 21.3144 107.056 21.6572 107.782 22.3428C108.509 23.0283 108.872 23.957 108.872 25.1289L106.095 25.1289C106.095 24.6367 105.975 24.2588 105.734 23.9951C105.494 23.7314 105.172 23.5996 104.768 23.5996C104 23.5996 103.552 24.0889 103.423 25.0674C103.382 25.3779 103.361 25.8057 103.361 26.3506C103.361 27.3057 103.476 27.9678 103.704 28.3369C103.933 28.7061 104.296 28.8906 104.794 28.8906ZM113.249 31L110.278 31L110.278 21.4902L113.249 21.4902L113.249 31ZM110.103 19.0381C110.103 18.6162 110.255 18.2705 110.56 18.001C110.864 17.7314 111.26 17.5967 111.746 17.5967C112.232 17.5967 112.628 17.7314 112.933 18.001C113.237 18.2705 113.39 18.6162 113.39 19.0381C113.39 19.46 113.237 19.8057 112.933 20.0752C112.628 20.3447 112.232 20.4795 111.746 20.4795C111.26 20.4795 110.864 20.3447 110.56 20.0752C110.255 19.8057 110.103 19.46 110.103 19.0381ZM119.683 31.1758C118.224 31.1758 117.043 30.7422 116.141 29.875C115.238 29.0019 114.787 27.8682 114.787 26.4736L114.787 26.2275C114.787 25.2549 114.966 24.3965 115.323 23.6523C115.687 22.9082 116.214 22.334 116.905 21.9297C117.597 21.5195 118.417 21.3144 119.366 21.3144C120.702 21.3144 121.757 21.7305 122.53 22.5625C123.304 23.3887 123.69 24.543 123.69 26.0254L123.69 27.1768L117.802 27.1768C117.907 27.71 118.139 28.1289 118.496 28.4336C118.854 28.7383 119.316 28.8906 119.885 28.8906C120.822 28.8906 121.555 28.5625 122.082 27.9062L123.436 29.5059C123.066 30.0156 122.542 30.4228 121.862 30.7275C121.188 31.0264 120.462 31.1758 119.683 31.1758ZM119.349 23.5996C118.481 23.5996 117.966 24.1738 117.802 25.3223L120.79 25.3223L120.79 25.0937C120.802 24.6191 120.682 24.2529 120.43 23.9951C120.178 23.7314 119.817 23.5996 119.349 23.5996ZM127.61 21.4902L127.707 22.6064C128.363 21.7451 129.269 21.3144 130.423 21.3144C131.413 21.3144 132.151 21.6103 132.638 22.2021C133.13 22.7939 133.385 23.6846 133.402 24.874L133.402 31L130.432 31L130.432 24.9971C130.432 24.5166 130.335 24.165 130.142 23.9424C129.948 23.7139 129.597 23.5996 129.087 23.5996C128.507 23.5996 128.076 23.8281 127.795 24.2852L127.795 31L124.833 31L124.833 21.4902L127.61 21.4902ZM139.071 28.8906C139.487 28.8906 139.81 28.7793 140.038 28.5566C140.267 28.3281 140.378 28.0117 140.372 27.6074L143.149 27.6074C143.149 28.6504 142.774 29.5059 142.024 30.1738C141.28 30.8418 140.319 31.1758 139.142 31.1758C137.759 31.1758 136.669 30.7422 135.872 29.875C135.075 29.0078 134.677 27.8066 134.677 26.2715L134.677 26.1484C134.677 25.1875 134.853 24.3408 135.204 23.6084C135.562 22.8701 136.074 22.3047 136.742 21.9121C137.41 21.5137 138.201 21.3144 139.115 21.3144C140.352 21.3144 141.333 21.6572 142.06 22.3428C142.786 23.0283 143.149 23.957 143.149 25.1289L140.372 25.1289C140.372 24.6367 140.252 24.2588 140.012 23.9951C139.771 23.7314 139.449 23.5996 139.045 23.5996C138.277 23.5996 137.829 24.0889 137.7 25.0674C137.659 25.3779 137.639 25.8057 137.639 26.3506C137.639 27.3057 137.753 27.9678 137.981 28.3369C138.21 28.706 138.573 28.8906 139.071 28.8906ZM149.003 31.1758C147.544 31.1758 146.363 30.7422 145.461 29.875C144.559 29.0019 144.107 27.8682 144.107 26.4736L144.107 26.2275C144.107 25.2549 144.286 24.3965 144.644 23.6523C145.007 22.9082 145.534 22.334 146.226 21.9297C146.917 21.5195 147.737 21.3144 148.687 21.3144C150.022 21.3144 151.077 21.7305 151.851 22.5625C152.624 23.3887 153.011 24.543 153.011 26.0254L153.011 27.1768L147.122 27.1768C147.228 27.71 147.459 28.1289 147.816 28.4336C148.174 28.7383 148.637 28.8906 149.205 28.8906C150.143 28.8906 150.875 28.5625 151.402 27.9062L152.756 29.5059C152.387 30.0156 151.862 30.4228 151.183 30.7275C150.509 31.0264 149.782 31.1758 149.003 31.1758ZM148.669 23.5996C147.802 23.5996 147.286 24.1738 147.122 25.3223L150.11 25.3223L150.11 25.0937C150.122 24.6191 150.002 24.2529 149.75 23.9951C149.498 23.7314 149.138 23.5996 148.669 23.5996ZM169.517 31L166.449 31L161.914 23.0371L161.914 31L158.829 31L158.829 18.2031L161.914 18.2031L166.44 26.166L166.44 18.2031L169.517 18.2031L169.517 31ZM175.933 31.1758C174.474 31.1758 173.293 30.7422 172.391 29.875C171.488 29.0019 171.037 27.8682 171.037 26.4736L171.037 26.2275C171.037 25.2549 171.216 24.3965 171.573 23.6523C171.937 22.9082 172.464 22.334 173.155 21.9297C173.847 21.5195 174.667 21.3144 175.616 21.3144C176.952 21.3144 178.007 21.7305 178.78 22.5625C179.554 23.3887 179.94 24.543 179.94 26.0254L179.94 27.1768L174.052 27.1768C174.157 27.71 174.389 28.1289 174.746 28.4336C175.104 28.7383 175.566 28.8906 176.135 28.8906C177.072 28.8906 177.805 28.5625 178.332 27.9062L179.686 29.5059C179.316 30.0156 178.792 30.4228 178.112 30.7275C177.438 31.0264 176.712 31.1758 175.933 31.1758ZM175.599 23.5996C174.731 23.5996 174.216 24.1738 174.052 25.3223L177.04 25.3223L177.04 25.0937C177.052 24.6191 176.932 24.2529 176.68 23.9951C176.428 23.7314 176.067 23.5996 175.599 23.5996ZM184.59 19.126L184.59 21.4902L186.154 21.4902L186.154 23.5469L184.59 23.5469L184.59 27.8975C184.59 28.2549 184.654 28.5039 184.783 28.6445C184.912 28.7851 185.167 28.8555 185.548 28.8555C185.841 28.8555 186.087 28.8379 186.286 28.8027L186.286 30.9209C185.753 31.0908 185.196 31.1758 184.616 31.1758C183.597 31.1758 182.844 30.9355 182.357 30.4551C181.871 29.9746 181.628 29.2451 181.628 28.2666L181.628 23.5469L180.415 23.5469L180.415 21.4902L181.628 21.4902L181.628 19.126L184.59 19.126ZM195.541 27.0976L196.499 21.4902L199.338 21.4902L197.097 31L194.592 31L193.019 25.3574L191.437 31L188.932 31L186.69 21.4902L189.529 21.4902L190.47 27.2295L191.981 21.4902L194.047 21.4902L195.541 27.0976ZM200.032 26.1572C200.032 25.208 200.217 24.3642 200.586 23.626C200.955 22.8818 201.485 22.3105 202.177 21.9121C202.868 21.5137 203.68 21.3144 204.611 21.3144C206.035 21.3144 207.157 21.7568 207.978 22.6416C208.798 23.5205 209.208 24.7187 209.208 26.2363L209.208 26.3418C209.208 27.8242 208.795 29.0019 207.969 29.875C207.148 30.7422 206.035 31.1758 204.629 31.1758C203.275 31.1758 202.188 30.7715 201.368 29.9629C200.548 29.1484 200.105 28.0469 200.041 26.6582L200.032 26.1572ZM202.994 26.3418C202.994 27.2207 203.132 27.8652 203.407 28.2754C203.683 28.6855 204.09 28.8906 204.629 28.8906C205.684 28.8906 206.223 28.0791 206.246 26.456L206.246 26.1572C206.246 24.4521 205.701 23.5996 204.611 23.5996C203.621 23.5996 203.085 24.335 203.003 25.8057L202.994 26.3418ZM216.266 24.1709L215.29 24.1006C214.358 24.1006 213.761 24.3935 213.497 24.9795L213.497 31L210.535 31L210.535 21.4902L213.313 21.4902L213.409 22.7119C213.907 21.7803 214.602 21.3144 215.492 21.3144C215.809 21.3144 216.084 21.3496 216.318 21.4199L216.266 24.1709ZM221.152 27.458L220.317 28.293L220.317 31L217.355 31L217.355 17.4912L220.317 17.4912L220.317 24.6631L220.616 24.2676L222.849 21.4902L226.399 21.4902L223.068 25.4014L226.619 31L223.227 31L221.152 27.458Z" fill="white"/>
<ellipse cx="17.589" cy="24.5039" rx="5.50388" ry="5.58878" transform="rotate(90 17.589 24.5039)" fill="#FFE29D"/>
<ellipse cx="29.589" cy="24.4687" rx="5.50388" ry="5.58878" transform="rotate(90 29.589 24.4687)" fill="#76DEFF"/>
<ellipse cx="5.58896" cy="24.4609" rx="5.50388" ry="5.58878" transform="rotate(90 5.58896 24.4609)" fill="#FF7CBD"/>
</svg>
